<?xml version="1.0" encoding="utf-8"?>
<!-- Svg Vector Icons : http://www.onlinewebfonts.com/icon -->
<!DOCTYPE svg PUBLIC "-//W3C//DTD SVG 1.1//EN" "http://www.w3.org/Graphics/SVG/1.1/DTD/svg11.dtd">
<svg version="1.1" xmlns="http://www.w3.org/2000/svg" xmlns:xlink="http://www.w3.org/1999/xlink" x="0px" y="0px" viewBox="0 0 256 256" enable-background="new 0 0 256 256" xml:space="preserve">
<metadata> Svg Vector Icons : http://www.onlinewebfonts.com/icon </metadata>
<g><g><path fill="#000000" d="M230.2,71.6c-10.6-18.1-24.9-32.4-43-42.9c-18.1-10.5-37.8-15.8-59.2-15.8c-21.4,0-41.2,5.3-59.2,15.8C50.7,39.3,36.4,53.6,25.8,71.6C15.3,89.7,10,109.5,10,130.9c0,25.7,7.5,48.8,22.5,69.4c15,20.5,34.4,34.8,58.2,42.6c2.8,0.5,4.8,0.1,6.1-1.1c1.3-1.2,2-2.8,2-4.6c0-0.3,0-3.1-0.1-8.3c0-5.2-0.1-9.8-0.1-13.7l-3.5,0.6c-2.3,0.4-5.1,0.6-8.5,0.5c-3.4,0-7-0.4-10.7-1.1s-7.1-2.2-10.3-4.6c-3.2-2.4-5.4-5.6-6.8-9.4l-1.5-3.5c-1-2.4-2.6-5-4.8-7.8c-2.2-2.9-4.4-4.8-6.7-5.8l-1.1-0.8c-0.7-0.5-1.4-1.1-2-1.9c-0.6-0.7-1.1-1.4-1.4-2.1c-0.3-0.7,0-1.3,0.8-1.8c0.8-0.5,2.3-0.7,4.5-0.7l3.1,0.5c2,0.4,4.6,1.6,7.6,3.7c3,2,5.5,4.7,7.4,8c2.4,4.2,5.2,7.4,8.5,9.6c3.3,2.2,6.7,3.3,10.1,3.3c3.4,0,6.3-0.3,8.8-0.8c2.5-0.5,4.8-1.3,6.9-2.3c0.9-6.9,3.4-12.1,7.5-15.8c-5.8-0.6-11.1-1.5-15.8-2.8c-4.7-1.2-9.5-3.2-14.4-6c-5-2.8-9.1-6.2-12.4-10.3c-3.3-4.1-6-9.5-8.1-16.1s-3.2-14.3-3.2-23c0-12.4,4-22.9,12.1-31.6c-3.8-9.3-3.4-19.8,1.1-31.3c3-0.9,7.4-0.2,13.2,2.1c5.8,2.3,10.1,4.3,12.8,5.9c2.7,1.6,4.9,3,6.5,4.1c9.5-2.7,19.4-4,29.5-4s20,1.3,29.5,4l5.8-3.7c4-2.5,8.7-4.7,14.1-6.8c5.4-2,9.6-2.6,12.4-1.7c4.6,11.6,5,22,1.2,31.3c8.1,8.7,12.1,19.3,12.1,31.6c0,8.7-1.1,16.4-3.2,23.1c-2.1,6.7-4.8,12.1-8.1,16.1c-3.3,4-7.5,7.4-12.4,10.2s-9.8,4.8-14.4,6c-4.7,1.2-9.9,2.1-15.8,2.8c5.3,4.6,8,11.9,8,21.8v32.4c0,1.8,0.7,3.4,1.9,4.6c1.3,1.2,3.3,1.6,6.1,1.1c23.8-7.9,43.2-22.1,58.2-42.6c15-20.6,22.5-43.7,22.5-69.4C246,109.5,240.7,89.7,230.2,71.6z"/></g></g>
</svg>