<?xml version="1.0" encoding="utf-8"?>
<!-- Svg Vector Icons : http://www.onlinewebfonts.com/icon -->
<!DOCTYPE svg PUBLIC "-//W3C//DTD SVG 1.1//EN" "http://www.w3.org/Graphics/SVG/1.1/DTD/svg11.dtd">
<svg version="1.1" xmlns="http://www.w3.org/2000/svg" xmlns:xlink="http://www.w3.org/1999/xlink" x="0px" y="0px" viewBox="0 0 256 256" enable-background="new 0 0 256 256" xml:space="preserve">
<metadata> Svg Vector Icons : http://www.onlinewebfonts.com/icon </metadata>
<g><g><path fill="#000000" d="M10,10L10,10L10,10z"/><path fill="#000000" d="M202.9,136.9c0,36.4-29.5,66-66,66c-36.4,0-66-29.5-66-66c0-4.3,0.4-8.6,1.3-12.7H27.8v87.7c0,18.8,15.2,34.1,34.1,34.1h150c18.8,0,34.1-15.3,34.1-34.1v-87.7h-44.4C202.4,128.3,202.9,132.6,202.9,136.9L202.9,136.9z M211.9,27.8h-150C43,27.8,27.8,43,27.8,61.9v36.9H83c11.9-16.9,31.6-27.9,53.9-27.9s41.9,11,53.9,27.9H246V61.9C246,43,230.7,27.8,211.9,27.8L211.9,27.8z M228.6,69.9c0,3.4-2.7,6.1-6.1,6.1h-18.3c-3.3,0-6.1-2.7-6.1-6.1V51.6c0-3.4,2.7-6.1,6.1-6.1h18.3c3.4,0,6.1,2.7,6.1,6.1V69.9z M177.5,136.9c0-22.4-18.2-40.6-40.6-40.6c-22.4,0-40.6,18.2-40.6,40.6c0,22.4,18.2,40.6,40.6,40.6C159.3,177.5,177.5,159.3,177.5,136.9L177.5,136.9z"/></g></g>
</svg>