<?xml version="1.0" encoding="utf-8"?>
<!-- Svg Vector Icons : http://www.onlinewebfonts.com/icon -->
<!DOCTYPE svg PUBLIC "-//W3C//DTD SVG 1.1//EN" "http://www.w3.org/Graphics/SVG/1.1/DTD/svg11.dtd">
<svg version="1.1" xmlns="http://www.w3.org/2000/svg" xmlns:xlink="http://www.w3.org/1999/xlink" x="0px" y="0px" viewBox="0 0 256 256" enable-background="new 0 0 256 256" xml:space="preserve">
<metadata> Svg Vector Icons : http://www.onlinewebfonts.com/icon </metadata>
<g><g><g><g><path fill="#000000" d="M237.1,10H18.8c-4.9,0-8.8,3.9-8.8,8.8v218.3c0,4.9,3.9,8.8,8.8,8.8h218.3c4.9,0,8.8-4,8.8-8.8V18.8C246,13.9,242,10,237.1,10z M72.7,204.2c0,3.3-2.6,5.9-5.9,5.9H43.3c-3.3,0-5.9-2.6-5.9-5.9v-103c0-3.3,2.6-5.9,5.9-5.9h23.6c3.3,0,5.9,2.6,5.9,5.9V204.2z M72.7,71.3c0,3.3-2.6,5.9-5.9,5.9H43.3c-3.3,0-5.9-2.6-5.9-5.9V50.4c0-3.3,2.6-5.9,5.9-5.9h23.6c3.3,0,5.9,2.6,5.9,5.9V71.3z M218.6,204.2c0,3.3-2.6,5.9-5.9,5.9h-23.6c-3.3,0-5.9-2.6-5.9-5.9v-43.5c0-14.4-0.7-23.7-2.3-28c-1.5-4.2-3.9-7.5-7.4-9.9c-3.4-2.4-7.5-3.5-12.3-3.5c-6.1,0-11.6,1.7-16.5,5c-4.9,3.3-8.2,7.8-10,13.3s-2.7,15.8-2.7,30.7v35.8c0,3.3-2.6,5.9-5.9,5.9h-23.6c-3.3,0-5.9-2.6-5.9-5.9v-103c0-3.3,2.6-5.9,5.9-5.9h21c3.3,0,5.9,2.6,5.9,5.9v7.9c0,3.3,1.6,3.8,3.8,1.4c11-12.1,24.4-18.1,40.2-18.1c7.8,0,14.9,1.4,21.4,4.2c6.5,2.8,11.3,6.4,14.6,10.7c3.3,4.4,5.6,9.3,6.9,14.8c1.3,5.5,2,13.5,2,23.8V204.2L218.6,204.2z"/></g></g><g></g><g></g><g></g><g></g><g></g><g></g><g></g><g></g><g></g><g></g><g></g><g></g><g></g><g></g><g></g></g></g>
</svg>